# xmcd CD database file
#
# Track frame offsets:
#	150
#	23122
#	49865
#	70757
#	94312
#	116812
#	138197
#	157040
#	178800
#	200162
#	219675
#
# Disc length: 3179 seconds
#
# Revision: 0
# Processed by: cddbd v1.5.1PL0 Copyright (c) Steve Scherf et al.
# Submitted via: CDex 1.51
#
DISCID=a80c690b
DTITLE=Roe Keller Cleaver - The Late Late Show
DYEAR=2001
DGENRE=Jazz
TTITLE0=Someone's Rocking My Dreamboat
TTITLE1=The Late Late Show
TTITLE2=Five Twenty Two
TTITLE3=The Princess And Death Blues
TTITLE4=Visitation
TTITLE5=Cloud Nine
TTITLE6=Dizzy Atmosphere
TTITLE7=My Old Flame
TTITLE8=Close To The Equator
TTITLE9=Song For Deborah
TTITLE10=Eronel
EXTD=YEAR: 2001
EXTT0=
EXTT1=
EXTT2=
EXTT3=
EXTT4=
EXTT5=
EXTT6=
EXTT7=
EXTT8=
EXTT9=
EXTT10=
PLAYORDER=
